# xmcd CD database file
#
# Track frame offsets:
#	150
#	24892
#	41480
#	63387
#	78902
#	101265
#	124197
#	141125
#	156387
#	179572
#	190960
#	212450
#	233402
#	241857
#	259102
#	268445
#
# Disc length: 3782 seconds
#
# Revision: 0
# Processed by: cddbd v1.5.1PL0 Copyright (c) Steve Scherf et al.
# Submitted via: CDex 1.51
#
DISCID=d60ec410
DTITLE=François Rilhac - Thanks a Million
DYEAR=1988
DGENRE=Jazz
TTITLE0=Hallelujah
TTITLE1=The Mule Walk
TTITLE2=Thanks a Million
TTITLE3=I never knew
TTITLE4=Just one of those things
TTITLE5=If I had you
TTITLE6=Liza
TTITLE7=Swwet and lovely
TTITLE8=Louise
TTITLE9=This can't be love
TTITLE10=High society
TTITLE11=Rosetta
TTITLE12=Composition in Db
TTITLE13=Can't help lovin dat man
TTITLE14=Oh Peter
TTITLE15=Song of the vagabonds
EXTD=YEAR: 1988
EXTT0=
EXTT1=
EXTT2=
EXTT3=
EXTT4=
EXTT5=
EXTT6=
EXTT7=
EXTT8=
EXTT9=
EXTT10=
EXTT11=
EXTT12=
EXTT13=
EXTT14=
EXTT15=
PLAYORDER=
